<svg width="351" height="385" viewBox="0 0 351 385" fill="none" xmlns="http://www.w3.org/2000/svg">
<path d="M121.731 87.6877C123.622 86.5196 125.545 85.4151 127.52 84.3957L94.2562 20.7651L84.5908 26.4146L121.721 87.6983L121.731 87.6877Z" fill="#C6C717"/>
<path d="M99.6737 105.76C101.407 103.88 103.181 102.117 105.009 100.387L55.9205 47.2903C52.8153 50.2637 49.6882 53.2264 46.752 56.3803L99.6847 105.76H99.6737Z" fill="#E9C507"/>
<path d="M84.9874 126.22C86.3398 123.703 87.8293 121.251 89.3814 118.893L29.2556 78.8052C26.4246 82.7344 24.164 87.0457 21.7871 91.2616L84.9764 126.23L84.9874 126.22Z" fill="#F4C402"/>
<path d="M5.80371 130.988L75.585 149.667L75.8702 148.649C76.6303 145.899 77.4969 143.19 78.4796 140.556L10.6945 115.548C9.00429 120.678 7.18687 125.774 5.81362 130.988H5.80371Z" fill="#F7C401"/>
<path d="M0 173.41L72.1165 174.642C72.1691 171.159 72.4115 167.675 72.813 164.171L1.22518 155.592C0.908193 158.553 0.380596 161.495 0.306011 164.49L0.0109122 173.41H0Z" fill="#F9C400"/>
<path d="M4.43911 216.121L74.7908 199.693C73.9353 195.987 73.2486 192.217 72.8263 188.415L1.05859 196.836C2.09402 203.293 2.93859 209.792 4.44895 216.121H4.43911Z" fill="#FAC400"/>
<path d="M80.4701 217.143C79.7407 215.444 79.0651 213.724 78.4421 211.983L10.7305 237.023L14.5442 246.93C16.0447 250.116 17.5968 253.248 19.1609 256.392L83.3965 223.409C82.3501 221.36 81.3685 219.267 80.4592 217.154" fill="#FAC400"/>
<path d="M42.878 291.943L97.4593 244.347C94.5439 240.96 91.8391 237.37 89.3887 233.663L29.252 273.709L32.3461 278.477L35.8012 282.99C38.1353 285.995 40.5012 288.99 42.878 291.943Z" fill="#FAC300"/>
<path d="M74.7044 320.65L116.092 261.225C112.162 258.464 108.423 255.437 104.969 252.178L55.6797 305.317C61.8483 310.647 67.9018 316.18 74.7044 320.65Z" fill="#F8B001"/>
<path d="M112.333 340.923L138.256 273.098C133.45 271.25 128.823 269.052 124.45 266.514L88.9033 329.645C96.3619 334.148 104.358 337.503 112.333 340.923Z" fill="#F49703"/>
<path d="M140.048 348.935C144.526 350.061 149.111 350.58 153.664 351.185L162.6 279.23C157.667 278.613 152.724 277.604 147.781 276.235L146.67 275.927L126.611 345.663C131.026 347.023 135.537 347.894 140.048 348.935Z" fill="#F17E05"/>
<path d="M167.064 352.371L174.396 352.582C176.846 352.667 179.276 352.689 181.716 352.488C186.622 352.179 191.514 351.914 196.373 351.415L187.719 279.278C182.075 279.969 176.319 280.191 170.518 279.905L167.075 352.381L167.064 352.371Z" fill="#EE6706"/>
<path d="M313.846 284.536C316.775 280.607 319.528 276.519 322.303 272.452C323.729 270.455 324.968 268.353 326.164 266.197L329.75 259.773L266.155 225.451C263.424 230.601 260.276 235.454 256.777 239.957L313.846 284.547V284.536Z" fill="#007F78"/>
<path d="M335.642 247.654C337.463 243.418 339.382 239.192 340.731 234.752C342.157 230.367 343.737 225.992 344.844 221.52L275.052 202.906L274.756 204.02C273.374 208.99 271.685 213.769 269.678 218.335L335.653 247.654H335.642Z" fill="#008A77"/>
<path d="M276.919 194.124L348.104 206.676C349.289 198.075 350.539 189.42 350.539 180.68L278.411 178.843C278.323 183.919 277.829 189.027 276.919 194.124Z" fill="#009476"/>
<path d="M278.224 168.954L350.21 163.857C349.892 155.681 348.291 147.62 346.92 139.56L276.239 154.704C277.248 159.355 277.895 164.134 278.224 168.943V168.954Z" fill="#009F76"/>
<path d="M273.47 144.234L342.154 121.668C340.849 118.1 339.522 114.522 338.162 110.963L336.078 105.665L333.61 100.536L268.501 131.778C270.409 135.792 272.066 139.975 273.459 144.234H273.47Z" fill="#00AA75"/>
<path d="M262.784 121.331L323.977 82.9323C322.112 79.9589 320.237 77.0068 318.284 74.0759L311.802 65.6973L255.6 111.179C258.221 114.397 260.601 117.795 262.784 121.331Z" fill="#00B474"/>
<path d="M246.88 101.609L297.302 49.6594C292.706 45.0825 287.606 40.9835 282.659 36.7463L238.27 94.0691C241.297 96.4479 244.171 98.954 246.869 101.609H246.88Z" fill="#00BE73"/>
<path d="M227.001 86.5062L263.054 23.704L255.278 19.3714C252.711 17.8952 249.925 16.844 247.238 15.5908L217.711 81.7169C220.914 83.1718 224.007 84.7647 226.99 86.5062H227.001Z" fill="#00C672"/>
<path d="M194.629 74.4368C197.36 74.9466 200.124 75.5943 202.866 76.3589L203.875 76.6457L223.838 6.909C218.694 5.37983 213.418 4.3179 208.164 3.13916L194.629 74.4368Z" fill="#00D071"/>
<path d="M170.551 72.6982C173.382 72.5389 176.234 72.5177 179.076 72.6558L181.77 0.189969C176.952 0.0731561 172.114 -0.202944 167.298 0.253684L170.551 72.7088V72.6982Z" fill="#37CD58"/>
<path d="M146.73 76.6268C149.139 75.9471 151.559 75.3311 154.062 74.8002L139.179 3.76807C134.984 4.68132 130.844 5.84944 126.703 6.99632L146.73 76.6373V76.6268Z" fill="#8CC931"/>
<path d="M209.192 347.702L216.365 346.205C218.756 345.716 224.12 344.208 226.445 343.444C231.139 342.01 238.894 339.111 243.512 337.497L212.416 271.796C207.086 273.782 201.547 275.343 195.832 276.405L209.192 347.713V347.702Z" fill="#EF4C26"/>
<path d="M344.975 343.639C330.3 360.724 312.289 374.869 291.932 385L190.276 205.28C193.062 203.453 195.717 201.425 198.228 199.195L344.975 343.628V343.639Z" fill="#007F78"/>
</svg>
